<?xml version="1.0" encoding="iso-8859-1"?>
<!-- Generator: Adobe Illustrator 16.0.0, SVG Export Plug-In . SVG Version: 6.00 Build 0)  -->
<!DOCTYPE svg PUBLIC "-//W3C//DTD SVG 1.1//EN" "http://www.w3.org/Graphics/SVG/1.1/DTD/svg11.dtd">
<svg version="1.1" id="Capa_1" xmlns="http://www.w3.org/2000/svg" xmlns:xlink="http://www.w3.org/1999/xlink" x="0px" y="0px"
	 width="59.018px" height="59.018px" viewBox="0 0 59.018 59.018" style="enable-background:new 0 0 59.018 59.018;"
	 xml:space="preserve">
<g>
	<path d="M9.68,48.071h39.651v1.853H9.68V48.071z M59.018,23.907c0,5.512-4.264,10.056-9.688,10.482v11.784H21.008l18.924-8.333
		l9.617-9.614c0.418-0.419,0.418-1.099,0-1.52c-0.424-0.417-1.1-0.417-1.515,0l-9.334,9.332l-13.122,5.785l-2.018-2.02l5.784-13.125
		l9.329-9.334c0.42-0.417,0.42-1.097,0-1.516c-0.42-0.419-1.095-0.419-1.515,0l-9.612,9.619L18.413,46.18H9.691V34.389
		C4.26,33.96,0,29.421,0,23.907c0-5.8,4.718-10.509,10.525-10.509c2.525,0,4.833,0.878,6.646,2.331
		c2.644-3.994,7.191-6.634,12.357-6.634c5.144,0,9.693,2.64,12.361,6.634c1.812-1.453,4.098-2.331,6.62-2.331
		C54.305,13.398,59.018,18.105,59.018,23.907z M32.77,29.423l8.989-8.985c0.42-0.421,0.42-1.101,0-1.517
		c-0.422-0.42-1.102-0.42-1.512,0l-8.99,8.989c-0.42,0.418-0.42,1.096,0,1.513c0.21,0.211,0.483,0.313,0.758,0.313
		C32.288,29.737,32.564,29.637,32.77,29.423z M35.115,31.771l8.99-8.988c0.422-0.418,0.422-1.098,0-1.516
		c-0.418-0.421-1.098-0.421-1.513,0l-8.99,8.986c-0.419,0.42-0.419,1.1,0,1.518c0.213,0.212,0.484,0.312,0.758,0.312
		C34.636,32.087,34.905,31.983,35.115,31.771z M46.452,23.615c-0.417-0.421-1.097-0.421-1.515,0l-8.989,8.988
		c-0.42,0.42-0.42,1.095,0,1.515c0.212,0.21,0.483,0.315,0.76,0.315c0.273,0,0.547-0.105,0.757-0.315l8.987-8.989
		C46.872,24.709,46.872,24.033,46.452,23.615z"/>
</g>
<g>
</g>
<g>
</g>
<g>
</g>
<g>
</g>
<g>
</g>
<g>
</g>
<g>
</g>
<g>
</g>
<g>
</g>
<g>
</g>
<g>
</g>
<g>
</g>
<g>
</g>
<g>
</g>
<g>
</g>
</svg>
