<svg width="256" height="181" viewBox="0 0 256 181" fill="none" xmlns="http://www.w3.org/2000/svg">
<g id="topshelf-logo" filter="url(#filter0_d)">
<path id="Vector" d="M41.9885 169.516H213.981V177.553H41.9885V169.516ZM256 64.7004C256 88.6096 237.504 108.32 213.977 110.168V161.283H91.1255L173.211 125.137L214.927 83.4348C216.74 81.6173 216.74 78.6677 214.927 76.8415C213.088 75.0327 210.155 75.0327 208.355 76.8415L167.867 117.321L110.949 142.414L102.195 133.652L127.284 76.7201L167.75 36.2324C169.572 34.4236 169.572 31.474 167.75 29.6565C165.928 27.839 163.001 27.839 161.179 29.6565L119.485 71.3804L79.8693 161.313H42.0363V110.168C18.4784 108.307 0 88.6183 0 64.7004C0 39.542 20.4651 19.116 45.6539 19.116C56.6065 19.116 66.6178 22.9244 74.4819 29.2271C85.9507 11.9024 105.674 0.451019 128.082 0.451019C150.395 0.451019 170.127 11.9024 181.7 29.2271C189.56 22.9244 199.476 19.116 210.416 19.116C235.557 19.116 256 39.5333 256 64.7004ZM142.145 88.627L181.136 49.6531C182.958 47.8269 182.958 44.8773 181.136 43.0729C179.306 41.251 176.356 41.251 174.578 43.0729L135.582 82.0641C133.76 83.8772 133.76 86.8182 135.582 88.627C136.493 89.5422 137.677 89.9846 138.87 89.9846C140.054 89.989 141.252 89.5552 142.145 88.627ZM152.317 98.8118L191.312 59.8249C193.143 58.0118 193.143 55.0622 191.312 53.249C189.499 51.4229 186.55 51.4229 184.75 53.249L145.754 92.2272C143.937 94.049 143.937 96.9986 145.754 98.8118C146.678 99.7314 147.853 100.165 149.042 100.165C150.239 100.182 151.406 99.7314 152.317 98.8118ZM201.493 63.4338C199.684 61.6077 196.735 61.6077 194.921 63.4338L155.93 102.421C154.108 104.243 154.108 107.17 155.93 108.992C156.85 109.903 158.025 110.359 159.227 110.359C160.411 110.359 161.6 109.903 162.51 108.992L201.493 70.0011C203.315 68.1792 203.315 65.247 201.493 63.4338Z" fill="white"/>
</g>
<defs>
<filter id="filter0_d" x="0" y="0.451019" width="258" height="180.102" filterUnits="userSpaceOnUse" color-interpolation-filters="sRGB">
<feFlood flood-opacity="0" result="BackgroundImageFix"/>
<feColorMatrix in="SourceAlpha" type="matrix" values="0 0 0 0 0 0 0 0 0 0 0 0 0 0 0 0 0 0 127 0"/>
<feOffset dx="2" dy="3"/>
<feColorMatrix type="matrix" values="0 0 0 0 0 0 0 0 0 0 0 0 0 0 0 0 0 0 0.25 0"/>
<feBlend mode="normal" in2="BackgroundImageFix" result="effect1_dropShadow"/>
<feBlend mode="normal" in="SourceGraphic" in2="effect1_dropShadow" result="shape"/>
</filter>
</defs>
</svg>
